<?xml version="1.0" standalone="no"?>
<!DOCTYPE svg PUBLIC "-//W3C//DTD SVG 20010904//EN"
 "http://www.w3.org/TR/2001/REC-SVG-20010904/DTD/svg10.dtd">
<svg version="1.0" xmlns="http://www.w3.org/2000/svg"
 width="400.000000pt" height="400.000000pt" viewBox="0 0 400.000000 400.000000"
 preserveAspectRatio="xMidYMid meet">
<metadata>
Created by potrace 1.11, written by Peter Selinger 2001-2013
</metadata>
<g transform="translate(0.000000,400.000000) scale(0.100000,-0.100000)"
fill="#000000" stroke="none">
<path d="M779 2503 c0 -10 -1 -173 -2 -363 -3 -334 -3 -346 -25 -387 -32 -62
-78 -93 -158 -108 -10 -2 -108 -4 -216 -4 l-198 -1 0 -86 0 -86 278 4 c260 4
281 6 347 28 92 32 160 88 199 165 17 33 33 67 36 75 2 8 6 187 8 398 l3 382
-135 0 c-123 0 -136 -2 -137 -17z"/>
<path d="M1234 1995 l0 -526 110 3 111 3 0 393 c0 215 2 392 6 392 3 0 17 -33
32 -72 14 -40 35 -98 46 -128 12 -30 66 -174 120 -320 l99 -265 141 -3 c136
-2 141 -2 141 18 0 11 4 28 10 38 5 9 33 80 61 157 28 77 71 194 96 260 25 66
59 156 74 199 16 44 32 83 37 88 5 5 9 -149 9 -354 1 -200 1 -373 2 -385 1
-22 4 -23 111 -23 91 0 110 3 111 15 0 8 1 243 2 523 l0 507 -186 3 c-142 2
-187 0 -187 -10 0 -10 -202 -587 -263 -750 -12 -32 -25 -54 -28 -50 -4 4 -16
34 -27 68 -24 69 -50 139 -63 169 -4 11 -40 108 -80 215 -39 107 -85 232 -102
278 l-30 82 -177 0 -176 0 0 -525z"/>
<path d="M2745 1995 l0 -526 130 3 129 3 0 183 0 182 248 0 c136 0 251 1 256
1 126 22 251 122 287 229 61 185 -55 400 -236 439 -31 7 -200 11 -432 11
l-382 0 0 -525z m707 310 c51 -37 75 -91 64 -148 -9 -47 -63 -102 -113 -116
-21 -6 -119 -11 -218 -11 l-181 0 0 156 0 155 202 -3 202 -3 44 -30z"/>
</g>
</svg>
